<svg width="56" height="56" viewBox="0 0 56 56" fill="none" xmlns="http://www.w3.org/2000/svg">
<path d="M8.75 38.5C8.26693 38.5 7.875 38.8919 7.875 39.375V41.125C7.875 41.6081 8.26693 42 8.75 42C9.23307 42 9.625 41.6081 9.625 41.125V39.375C9.625 38.8919 9.23307 38.5 8.75 38.5ZM13.125 38.5C12.6419 38.5 12.25 38.8919 12.25 39.375V41.125C12.25 41.6081 12.6419 42 13.125 42C13.6081 42 14 41.6081 14 41.125V39.375C14 38.8919 13.6081 38.5 13.125 38.5ZM17.5 38.5C17.0169 38.5 16.625 38.8919 16.625 39.375V41.125C16.625 41.6081 17.0169 42 17.5 42C17.9831 42 18.375 41.6081 18.375 41.125V39.375C18.375 38.8919 17.9831 38.5 17.5 38.5ZM21.875 38.5C21.3919 38.5 21 38.8919 21 39.375V41.125C21 41.6081 21.3919 42 21.875 42C22.3581 42 22.75 41.6081 22.75 41.125V39.375C22.75 38.8919 22.3581 38.5 21.875 38.5ZM26.25 38.5C25.7669 38.5 25.375 38.8919 25.375 39.375V41.125C25.375 41.6081 25.7669 42 26.25 42C26.7331 42 27.125 41.6081 27.125 41.125V39.375C27.125 38.8919 26.7331 38.5 26.25 38.5ZM30.625 38.5C30.1419 38.5 29.75 38.8919 29.75 39.375V41.125C29.75 41.6081 30.1419 42 30.625 42C31.1081 42 31.5 41.6081 31.5 41.125V39.375C31.5 38.8919 31.1081 38.5 30.625 38.5ZM35 38.5C34.5169 38.5 34.125 38.8919 34.125 39.375V41.125C34.125 41.6081 34.5169 42 35 42C35.4831 42 35.875 41.6081 35.875 41.125V39.375C35.875 38.8919 35.4831 38.5 35 38.5ZM39.375 38.5C38.8919 38.5 38.5 38.8919 38.5 39.375V41.125C38.5 41.6081 38.8919 42 39.375 42C39.8581 42 40.25 41.6081 40.25 41.125V39.375C40.25 38.8919 39.8581 38.5 39.375 38.5ZM43.75 38.5C43.2669 38.5 42.875 38.8919 42.875 39.375V41.125C42.875 41.6081 43.2669 42 43.75 42C44.2331 42 44.625 41.6081 44.625 41.125V39.375C44.625 38.8919 44.2331 38.5 43.75 38.5ZM35.875 24.5H32.375C31.8919 24.5 31.5 24.8919 31.5 25.375C31.5 25.8581 31.8919 26.25 32.375 26.25H35.875C36.3581 26.25 36.75 25.8581 36.75 25.375C36.75 24.8919 36.3581 24.5 35.875 24.5ZM13.125 26.25H28.875C29.3581 26.25 29.75 25.8581 29.75 25.375C29.75 24.8919 29.3581 24.5 28.875 24.5H13.125C12.6419 24.5 12.25 24.8919 12.25 25.375C12.25 25.8581 12.6419 26.25 13.125 26.25ZM32.375 29.75H13.125C12.6419 29.75 12.25 30.1419 12.25 30.625C12.25 31.1081 12.6419 31.5 13.125 31.5H32.375C32.8581 31.5 33.25 31.1081 33.25 30.625C33.25 30.1419 32.8581 29.75 32.375 29.75Z" fill="#08B6F0"/>
<path d="M28 45.5H46.375C47.8242 45.5 49 44.3242 49 42.875V14.875C49 13.4258 47.8242 12.25 46.375 12.25H6.125C4.67578 12.25 3.5 13.4258 3.5 14.875V42.875C3.5 44.3242 4.67578 45.5 6.125 45.5H12.373C12.3708 47.5257 11.7624 49.5036 10.623 51.1784C10.3747 51.5954 10.5137 52.1309 10.9284 52.377C11.0651 52.459 11.2178 52.5 11.375 52.5H11.5664C18.3226 50.9961 20.8428 47.0404 21.5765 45.5H28ZM21 43.75C20.624 43.75 20.2891 43.9893 20.1683 44.3447C20.1683 44.3447 18.7852 48.3005 13.125 50.2419C14.7269 46.6553 14 44.4587 14 44.3447C13.8747 43.9733 13.5169 43.7295 13.125 43.75H6.125C5.64193 43.75 5.25 43.3581 5.25 42.875V14.875C5.25 14.3919 5.64193 14 6.125 14H46.375C46.8581 14 47.25 14.3919 47.25 14.875V42.875C47.25 43.3581 46.8581 43.75 46.375 43.75H21Z" fill="#08B6F0"/>
<path d="M49.875 7H11.375C9.92578 7 8.75 8.17578 8.75 9.625V12.8311C9.3151 12.7331 9.91211 12.7741 10.5 12.8265V9.625C10.5 9.14193 10.8919 8.75 11.375 8.75H49.875C50.3581 8.75 50.75 9.14193 50.75 9.625V37.625C50.75 38.1081 50.3581 38.5 49.875 38.5H48.2093C48.2207 38.5524 48.2275 38.6094 48.2184 38.6709C48.1409 39.1927 48.1615 39.7214 48.1751 40.25H49.875C51.3242 40.25 52.5 39.0742 52.5 37.625V9.625C52.5 8.17578 51.3242 7 49.875 7Z" fill="#08B6F0"/>
</svg>
