<svg width="56" height="56" viewBox="0 0 56 56" fill="none" xmlns="http://www.w3.org/2000/svg">
<path d="M43.3125 24.5C47.4141 24.5 50.75 21.1641 50.75 17.0625C50.75 12.9609 47.4141 9.625 43.3125 9.625C39.2109 9.625 35.875 12.9609 35.875 17.0625C35.875 21.1641 39.2109 24.5 43.3125 24.5ZM43.3125 11.375C46.4479 11.375 49 13.9271 49 17.0625C49 20.1979 46.4479 22.75 43.3125 22.75C40.1771 22.75 37.625 20.1979 37.625 17.0625C37.625 13.9271 40.1771 11.375 43.3125 11.375ZM28 1.75C24.14 1.75 21 4.88997 21 8.75C21 12.61 24.14 15.75 28 15.75C31.86 15.75 35 12.61 35 8.75C35 4.88997 31.86 1.75 28 1.75ZM28 14C25.1038 14 22.75 11.6462 22.75 8.75C22.75 5.85384 25.1038 3.5 28 3.5C30.8962 3.5 33.25 5.85384 33.25 8.75C33.25 11.6462 30.8962 14 28 14ZM13.125 9.625C9.74805 9.625 7 12.373 7 15.75C7 19.127 9.74805 21.875 13.125 21.875C16.502 21.875 19.25 19.127 19.25 15.75C19.25 12.373 16.502 9.625 13.125 9.625ZM13.125 20.125C10.7119 20.125 8.75 18.1631 8.75 15.75C8.75 13.3369 10.7119 11.375 13.125 11.375C15.5381 11.375 17.5 13.3369 17.5 15.75C17.5 18.1631 15.5381 20.125 13.125 20.125ZM13.125 29.75C13.125 26.8538 10.7712 24.5 7.875 24.5C4.97884 24.5 2.625 26.8538 2.625 29.75C2.625 32.6462 4.97884 35 7.875 35C10.7712 35 13.125 32.6462 13.125 29.75ZM7.875 33.25C5.94499 33.25 4.375 31.68 4.375 29.75C4.375 27.82 5.94499 26.25 7.875 26.25C9.80501 26.25 11.375 27.82 11.375 29.75C11.375 31.68 9.80501 33.25 7.875 33.25ZM14 38.5C11.5869 38.5 9.625 40.4619 9.625 42.875C9.625 45.2881 11.5869 47.25 14 47.25C16.4131 47.25 18.375 45.2881 18.375 42.875C18.375 40.4619 16.4131 38.5 14 38.5ZM14 45.5C12.5531 45.5 11.375 44.3219 11.375 42.875C11.375 41.4281 12.5531 40.25 14 40.25C15.4469 40.25 16.625 41.4281 16.625 42.875C16.625 44.3219 15.4469 45.5 14 45.5ZM28 43.75C25.5869 43.75 23.625 45.7119 23.625 48.125C23.625 50.5381 25.5869 52.5 28 52.5C30.4131 52.5 32.375 50.5381 32.375 48.125C32.375 45.7119 30.4131 43.75 28 43.75ZM28 50.75C26.5531 50.75 25.375 49.5719 25.375 48.125C25.375 46.6781 26.5531 45.5 28 45.5C29.4469 45.5 30.625 46.6781 30.625 48.125C30.625 49.5719 29.4469 50.75 28 50.75ZM41.125 40.25C39.195 40.25 37.625 41.82 37.625 43.75C37.625 45.68 39.195 47.25 41.125 47.25C43.055 47.25 44.625 45.68 44.625 43.75C44.625 41.82 43.055 40.25 41.125 40.25ZM41.125 45.5C40.1589 45.5 39.375 44.7161 39.375 43.75C39.375 42.7839 40.1589 42 41.125 42C42.0911 42 42.875 42.7839 42.875 43.75C42.875 44.7161 42.0911 45.5 41.125 45.5ZM47.6875 30.625C45.999 30.625 44.625 31.999 44.625 33.6875C44.625 35.376 45.999 36.75 47.6875 36.75C49.376 36.75 50.75 35.376 50.75 33.6875C50.75 31.999 49.376 30.625 47.6875 30.625ZM47.6875 35C46.9629 35 46.375 34.4121 46.375 33.6875C46.375 32.9629 46.9629 32.375 47.6875 32.375C48.4121 32.375 49 32.9629 49 33.6875C49 34.4121 48.4121 35 47.6875 35Z" fill="url(#paint0_angular_1367_3355)"/>
<defs>
<radialGradient id="paint0_angular_1367_3355" cx="0" cy="0" r="1" gradientUnits="userSpaceOnUse" gradientTransform="translate(26.6875 27.125) rotate(-0.626158) scale(26.6891 25.3086)">
<stop stop-color="#605BFF" stop-opacity="0"/>
<stop offset="1" stop-color="#605BFF"/>
</radialGradient>
</defs>
</svg>
