<svg width="24" height="24" viewBox="0 0 24 24" fill="none" xmlns="http://www.w3.org/2000/svg">
<path d="M15.4611 9.99998H14.9611V9.49998C14.9611 8.12098 13.8391 6.99998 12.4611 6.99998H11.4611C10.0831 6.99998 8.96106 8.12098 8.96106 9.49998V9.99998H8.46106C7.08306 9.99998 5.96106 11.121 5.96106 12.5V13.5C5.96106 14.879 7.08306 16 8.46106 16H8.96106V16.5C8.96106 17.879 10.0831 19 11.4611 19H12.4611C13.8391 19 14.9611 17.879 14.9611 16.5V16H15.4611C16.8391 16 17.9611 14.879 17.9611 13.5V12.5C17.9611 11.121 16.8391 9.99998 15.4611 9.99998ZM15.9611 13.5C15.9611 13.775 15.7371 14 15.4611 14H13.9611C13.4091 14 12.9611 14.447 12.9611 15V16.5C12.9611 16.775 12.7371 17 12.4611 17H11.4611C11.1851 17 10.9611 16.775 10.9611 16.5V15C10.9611 14.447 10.5131 14 9.96106 14H8.46106C8.18506 14 7.96106 13.775 7.96106 13.5V12.5C7.96106 12.225 8.18506 12 8.46106 12H9.96106C10.5131 12 10.9611 11.553 10.9611 11V9.49998C10.9611 9.22498 11.1851 8.99998 11.4611 8.99998H12.4611C12.7371 8.99998 12.9611 9.22498 12.9611 9.49998V11C12.9611 11.553 13.4091 12 13.9611 12H15.4611C15.7371 12 15.9611 12.225 15.9611 12.5V13.5ZM21.7581 5.57898L14.7581 0.854983C13.0591 -0.291017 10.8631 -0.291017 9.16406 0.854983L2.16506 5.57898C0.78506 6.50998 -0.0389404 8.05898 -0.0389404 9.72398V19C-0.0389404 21.757 2.20406 24 4.96106 24H18.9611C21.7181 24 23.9611 21.757 23.9611 19V9.72398C23.9611 8.05898 23.1371 6.50998 21.7581 5.57898ZM21.9611 19C21.9611 20.654 20.6151 22 18.9611 22H4.96106C3.30706 22 1.96106 20.654 1.96106 19V9.72398C1.96106 8.72498 2.45506 7.79598 3.28306 7.23798L10.2841 2.51398C10.7941 2.16898 11.3781 1.99698 11.9621 1.99698C12.5461 1.99698 13.1301 2.16898 13.6401 2.51398L20.6401 7.23798C21.4681 7.79698 21.9621 8.72498 21.9621 9.72398L21.9611 19Z" fill="#585C6A"/>
</svg>
