<svg width="21" height="24" viewBox="0 0 21 24" fill="none" xmlns="http://www.w3.org/2000/svg">
<path d="M10.5 12C13.809 12 16.5 9.309 16.5 6C16.5 2.691 13.809 0 10.5 0C7.191 0 4.5 2.691 4.5 6C4.5 9.309 7.191 12 10.5 12ZM10.5 2C12.706 2 14.5 3.794 14.5 6C14.5 8.206 12.706 10 10.5 10C8.294 10 6.5 8.206 6.5 6C6.5 3.794 8.294 2 10.5 2ZM20.5 23C20.5 23.553 20.053 24 19.5 24C18.947 24 18.5 23.553 18.5 23C18.5 20.214 16.863 17.802 14.5 16.676V19.172C15.664 19.585 16.5 20.696 16.5 22V23C16.5 23.553 16.053 24 15.5 24C14.947 24 14.5 23.553 14.5 23V22C14.5 21.448 14.052 21 13.5 21C12.948 21 12.5 21.448 12.5 22V23C12.5 23.553 12.053 24 11.5 24C10.947 24 10.5 23.553 10.5 23V22C10.5 20.696 11.336 19.585 12.5 19.172V16.072C12.173 16.025 11.839 16 11.5 16H9.5C8.805 16 8.134 16.102 7.5 16.292V19.269C8.098 19.615 8.5 20.261 8.5 21.001C8.5 22.106 7.605 23.001 6.5 23.001C5.395 23.001 4.5 22.106 4.5 21.001C4.5 20.261 4.902 19.615 5.5 19.269V17.26C3.688 18.527 2.5 20.628 2.5 23.001C2.5 23.554 2.053 24.001 1.5 24.001C0.947 24.001 0.5 23.554 0.5 23.001C0.5 18.038 4.537 14.001 9.5 14.001H11.5C16.463 14.001 20.5 18.037 20.5 23Z" fill="#585C6A"/>
</svg>
