<svg width="25" height="24" viewBox="0 0 25 24" fill="none" xmlns="http://www.w3.org/2000/svg">
<g clip-path="url(#clip0_90_132)">
<g clip-path="url(#clip1_90_132)">
<path d="M24.207 5.29298L19.207 0.29298C19.0184 0.110822 18.7658 0.0100274 18.5036 0.0123059C18.2414 0.0145843 17.9906 0.119753 17.8052 0.305161C17.6198 0.490569 17.5146 0.741382 17.5123 1.00358C17.5101 1.26578 17.6109 1.51838 17.793 1.70698L19.586 3.49998L18.1 4.98298C17.1396 4.27779 15.9589 3.93876 14.7707 4.02694C13.5825 4.11513 12.4648 4.62474 11.619 5.46398L5.55002 11.536C4.8981 12.1844 4.38124 12.9557 4.02936 13.8052C3.67748 14.6547 3.49756 15.5655 3.50002 16.485V19.585L0.79302 22.293C0.69751 22.3852 0.621328 22.4956 0.568919 22.6176C0.51651 22.7396 0.488924 22.8708 0.48777 23.0036C0.486616 23.1364 0.511918 23.268 0.562198 23.3909C0.612479 23.5138 0.686732 23.6255 0.780625 23.7194C0.874518 23.8133 0.98617 23.8875 1.10907 23.9378C1.23196 23.9881 1.36364 24.0134 1.49642 24.0122C1.6292 24.0111 1.76042 23.9835 1.88242 23.9311C2.00443 23.8787 2.11477 23.8025 2.20702 23.707L4.91402 21H8.01402C8.9335 21.0024 9.84434 20.8225 10.6938 20.4706C11.5433 20.1188 12.3146 19.6019 12.963 18.95L19.035 12.878C19.8749 12.0332 20.3851 10.916 20.4735 9.72808C20.5619 8.54013 20.2226 7.35973 19.517 6.39998L21 4.91398L22.793 6.70698C22.9816 6.88914 23.2342 6.98993 23.4964 6.98765C23.7586 6.98538 24.0094 6.88021 24.1948 6.6948C24.3802 6.50939 24.4854 6.25858 24.4877 5.99638C24.49 5.73418 24.3892 5.48158 24.207 5.29298ZM17.622 11.464L11.55 17.536C11.0868 18.0016 10.5359 18.3707 9.92914 18.622C9.32236 18.8733 8.67177 19.0018 8.01502 19H5.50002V16.485C5.50033 16.1574 5.53214 15.8305 5.59502 15.509L6.79502 16.709C6.88727 16.8045 6.99761 16.8807 7.11962 16.9331C7.24162 16.9855 7.37284 17.0131 7.50562 17.0142C7.6384 17.0154 7.77008 16.9901 7.89297 16.9398C8.01587 16.8895 8.12752 16.8153 8.22142 16.7214C8.31531 16.6275 8.38956 16.5158 8.43984 16.3929C8.49012 16.27 8.51542 16.1384 8.51427 16.0056C8.51312 15.8728 8.48553 15.7416 8.43312 15.6196C8.38071 15.4976 8.30453 15.3872 8.20902 15.295L6.46802 13.554C6.61875 13.3412 6.78593 13.1406 6.96802 12.954L8.00002 11.914L9.79302 13.707C9.98162 13.8891 10.2342 13.9899 10.4964 13.9877C10.7586 13.9854 11.0094 13.8802 11.1948 13.6948C11.3802 13.5094 11.4854 13.2586 11.4877 12.9964C11.49 12.7342 11.3892 12.4816 11.207 12.293L9.41402 10.5L11 8.91398L12.793 10.707C12.9816 10.8891 13.2342 10.9899 13.4964 10.9877C13.7586 10.9854 14.0094 10.8802 14.1948 10.6948C14.3802 10.5094 14.4854 10.2586 14.4877 9.99638C14.49 9.73418 14.3892 9.48158 14.207 9.29298L12.414 7.49998L13.036 6.87798C13.6076 6.3328 14.3671 6.02865 15.157 6.02865C15.9469 6.02865 16.7065 6.3328 17.278 6.87798L17.622 7.22198C18.1844 7.78456 18.5004 8.54749 18.5004 9.34298C18.5004 10.1385 18.1844 10.9014 17.622 11.464Z" fill="#6968EC"/>
</g>
</g>
<defs>
<clipPath id="clip0_90_132">
<rect width="24" height="24" fill="white" transform="translate(0.5)"/>
</clipPath>
<clipPath id="clip1_90_132">
<rect width="24" height="24" fill="white" transform="translate(0.5)"/>
</clipPath>
</defs>
</svg>
