<svg width="20" height="20" viewBox="0 0 20 20" fill="none" xmlns="http://www.w3.org/2000/svg">
<path d="M9.99998 11.6666C11.3807 11.6666 12.5 10.5474 12.5 9.16665C12.5 7.78593 11.3807 6.66665 9.99998 6.66665C8.61927 6.66665 7.49998 7.78593 7.49998 9.16665C7.49998 10.5474 8.61927 11.6666 9.99998 11.6666Z" stroke="#444753" stroke-width="1.5" stroke-linecap="round" stroke-linejoin="round"/>
<path d="M14.7141 13.8808L11.1783 17.4166C10.8658 17.7288 10.4421 17.9042 10.0004 17.9042C9.55866 17.9042 9.135 17.7288 8.82248 17.4166L5.28582 13.8808C4.3535 12.9484 3.7186 11.7605 3.46139 10.4673C3.20418 9.17413 3.33622 7.8337 3.84082 6.61555C4.34541 5.39739 5.1999 4.35622 6.29622 3.6237C7.39254 2.89117 8.68146 2.50018 9.99998 2.50018C11.3185 2.50018 12.6074 2.89117 13.7037 3.6237C14.8001 4.35622 15.6546 5.39739 16.1591 6.61555C16.6637 7.8337 16.7958 9.17413 16.5386 10.4673C16.2814 11.7605 15.6465 12.9484 14.7141 13.8808Z" stroke="#444753" stroke-width="1.5" stroke-linecap="round" stroke-linejoin="round"/>
</svg>
