<svg width="128" height="128" viewBox="0 0 128 128" fill="none" xmlns="http://www.w3.org/2000/svg">
<g clip-path="url(#clip0_1_710)">
<path d="M0 4.50879V114.098C0 119.277 4.21373 123.491 9.39335 123.491H118.607C123.786 123.491 128 119.277 128 114.098V4.50879H0ZM124.243 114.098C124.243 117.206 121.714 119.734 118.607 119.734H9.39335C6.28553 119.734 3.75734 117.206 3.75734 114.098V25.2994H124.243V114.098ZM124.243 21.5421H3.75734V8.26613H124.243V21.5421Z" fill="#6968EC"/>
<path d="M25.9256 13.0254H29.683V16.7827H25.9256V13.0254Z" fill="#6968EC"/>
<path d="M18.411 13.0254H22.1683V16.7827H18.411V13.0254Z" fill="#6968EC"/>
<path d="M10.8963 13.0254H14.6536V16.7827H10.8963V13.0254Z" fill="#6968EC"/>
<path d="M51.8513 107.71C55.1019 107.71 58.2655 107.139 61.2749 106.013C62.4064 107.055 63.7134 108.026 65.2249 108.859C67.4833 110.104 69.781 110.709 71.9235 110.709C74.5093 110.709 76.8671 109.827 78.6536 108.128C80.4399 109.827 82.7977 110.709 85.3838 110.709C87.5259 110.709 89.8244 110.104 92.0823 108.859C101.387 103.728 102.993 93.4223 103.057 92.9862L103.273 91.5028L101.875 90.9623C101.683 90.8879 98.8658 89.8236 94.9018 89.5335C94.5822 85.7145 93.4543 83.01 93.3994 82.8805L92.8406 81.5614L91.4208 81.751C91.2758 81.7706 88.2323 82.1932 84.5945 83.8652C82.3443 80.7245 79.9644 78.9155 79.7763 78.7755L78.7791 78.0325V70.7631C78.7791 60.1699 72.6296 50.9872 63.7137 46.5936C63.7352 46.3008 63.7498 46.0077 63.7498 45.7142C63.7498 39.1536 58.4121 33.8159 51.8515 33.8159C45.291 33.8159 39.9533 39.1536 39.9533 45.7142C39.9533 46.0075 39.9678 46.3008 39.9894 46.5936C31.0732 50.9872 24.9237 60.1699 24.9237 70.7631V80.7826C24.9237 95.6306 37.0033 107.71 51.8513 107.71ZM67.0394 105.569C61.3518 102.432 59.1122 96.7356 58.3337 93.9955C60.4476 93.4474 64.4704 92.7362 68.7676 93.6876C68.6874 94.3802 68.6403 95.0903 68.6403 95.8225C68.6403 100.86 71.0438 104.735 74.8049 106.286C72.7235 107.354 69.9035 107.148 67.0394 105.569ZM66.18 89.525C66.3323 87.9992 66.6301 86.6995 66.8901 85.7842C67.8658 86.0266 69.2367 86.4387 70.7562 87.1048C70.3053 88.0103 69.9008 88.9817 69.5679 90.0147C68.4106 89.7594 67.2744 89.6031 66.18 89.525ZM90.4178 85.7872C90.6778 86.7027 90.9752 88.0012 91.1272 89.525C90.0328 89.6029 88.8966 89.7592 87.7396 90.0149C87.4067 88.9824 87.0024 88.0113 86.5518 87.106C88.0648 86.4445 89.4392 86.0314 90.4178 85.7872ZM88.6672 95.8225C88.6672 95.0908 88.6201 94.3807 88.5399 93.6884C92.8178 92.7458 96.8519 93.4554 98.9723 94.0002C98.192 96.7446 95.9514 102.434 90.2681 105.569C87.4042 107.148 84.5842 107.354 82.5029 106.286C86.2637 104.734 88.6672 100.86 88.6672 95.8225ZM78.6536 82.7668C80.7207 84.7231 84.9098 89.4719 84.9098 95.8223C84.9098 100.345 82.454 103.268 78.6536 103.268C74.8532 103.268 72.3974 100.346 72.3974 95.8223C72.3974 89.4719 76.5866 84.7231 78.6536 82.7668ZM51.8513 37.5733C56.1284 37.5733 59.6432 40.8897 59.9656 45.0857C57.4039 44.2743 54.678 43.8355 51.8513 43.8355C49.0245 43.8355 46.2987 44.2743 43.7369 45.0857C44.0593 40.8897 47.5742 37.5733 51.8513 37.5733ZM51.8513 47.5928C63.7906 47.5928 73.6486 56.6703 74.889 68.286C66.155 65.7661 62.4294 62.257 59.1929 57.2229L57.7786 55.0231L56.1454 57.0656C48.9774 66.0296 38.032 68.162 28.7677 68.7722C29.7809 56.9246 39.7459 47.5928 51.8513 47.5928ZM28.681 72.5431C38.1402 71.9547 49.3521 69.9064 57.4387 61.3046C60.9904 66.1268 65.647 69.7188 75.0215 72.2212V80.7826C75.0215 80.8771 75.0195 80.9773 75.018 81.0755C74.2991 81.8327 73.4988 82.7678 72.7128 83.8649C69.0749 82.1929 66.0315 81.7703 65.8864 81.7508L64.4667 81.5612L63.9078 82.8802C63.853 83.0097 62.725 85.7145 62.4054 89.5335C58.4411 89.8236 55.6241 90.8879 55.432 90.9623L54.0335 91.5028L54.2507 92.9862C54.2945 93.2856 55.065 98.2342 58.5521 102.968C56.3911 103.621 54.1468 103.953 51.8513 103.953C39.0751 103.953 28.681 93.5589 28.681 80.7826V72.5431Z" fill="#6968EC"/>
<path d="M41.8321 81.4087C43.8676 81.4087 45.3683 83.2007 45.3833 83.2187L46.8419 82.0349L48.3088 80.8614C48.2041 80.7304 45.6964 77.6514 41.8321 77.6514C37.9678 77.6514 35.4602 80.7304 35.3555 80.8614L38.2812 83.2187C38.296 83.2007 39.7966 81.4087 41.8321 81.4087Z" fill="#6968EC"/>
<path d="M90.3018 56.1094H94.0591V59.8667H90.3018V56.1094Z" fill="#6968EC"/>
<path d="M90.3018 68.6338H94.0591V72.3911H90.3018V68.6338Z" fill="#6968EC"/>
<path d="M96.5636 62.3716H100.321V66.1289H96.5636V62.3716Z" fill="#6968EC"/>
<path d="M84.0391 62.3716H87.7965V66.1289H84.0391V62.3716Z" fill="#6968EC"/>
</g>
<defs>
<clipPath id="clip0_1_710">
<rect width="128" height="128" fill="white"/>
</clipPath>
</defs>
</svg>
