 <svg width="32" height="32" viewBox="0 0 32 32" fill="none" xmlns="http://www.w3.org/2000/svg">
                                    <g clip-path="url(#clip0_1_748)">
                                        <path d="M28.2887 2.87744V1.81196C28.2887 0.812882 27.4759 6.25245e-05 26.4768 6.25245e-05C25.4778 6.25245e-05 24.6649 0.812882 24.6649 1.81196V2.87675H23.0498V1.81196C23.0498 0.812819 22.2372 0 21.2385 0C20.2394 0 19.4265 0.812819 19.4265 1.81196V2.87675H17.8115V1.81196C17.8115 0.812882 16.9987 6.25245e-05 15.9996 6.25245e-05C15.0005 6.25245e-05 14.1877 0.812882 14.1877 1.81196V2.87675H12.5729V1.81196C12.5729 0.812882 11.7601 6.25245e-05 10.761 6.25245e-05C9.76191 6.25245e-05 8.94909 0.812882 8.94909 1.81196V2.87675H7.33426V1.81196C7.33426 0.812882 6.52145 6.25245e-05 5.52237 6.25245e-05C4.52329 6.25245e-05 3.71047 0.812882 3.71047 1.81196V2.87738C2.00942 2.89195 0.629883 4.27968 0.629883 5.98416V8.35259C0.629883 9.63191 1.40713 10.7328 2.51412 11.2088V27.9327C2.51412 30.1754 4.33865 31.9999 6.58134 31.9999H25.4181C27.6607 31.9999 29.4853 30.1753 29.4853 27.9327V11.2088C30.5923 10.7328 31.3695 9.63197 31.3695 8.35265V5.98422C31.3693 4.27974 29.9898 2.89195 28.2887 2.87744ZM25.6028 1.81196C25.6028 1.33002 25.9949 0.937931 26.4768 0.937931C26.9588 0.937931 27.3509 1.33002 27.3509 1.81196V5.81616C27.3509 6.2981 26.9588 6.69019 26.4768 6.69019C25.9949 6.69019 25.6028 6.2981 25.6028 5.81616V1.81196ZM15.1255 1.81196C15.1255 1.33002 15.5176 0.937931 15.9995 0.937931C16.4815 0.937931 16.8736 1.33002 16.8736 1.81196V5.81616C16.8736 6.2981 16.4815 6.69019 15.9995 6.69019C15.5176 6.69019 15.1255 6.2981 15.1255 5.81616V1.81196ZM9.88689 1.81196C9.88689 1.33002 10.279 0.937931 10.7609 0.937931C11.2429 0.937931 11.635 1.33002 11.635 1.81196V5.81616C11.635 6.2981 11.2429 6.69019 10.7609 6.69019C10.279 6.69019 9.88689 6.2981 9.88689 5.81616V1.81196ZM4.64821 1.81196C4.64821 1.33002 5.0403 0.937931 5.52224 0.937931C6.00418 0.937931 6.39627 1.33002 6.39627 1.81196V5.81616C6.39627 6.2981 6.00418 6.69019 5.52224 6.69019C5.0403 6.69019 4.64821 6.2981 4.64821 5.81616V1.81196ZM28.5473 27.9328C28.5473 29.6583 27.1435 31.0621 25.418 31.0621H6.58122C4.85567 31.0621 3.45187 29.6583 3.45187 27.9328V11.4465C3.5459 11.4551 3.641 11.4601 3.73723 11.4601H28.2619C28.3581 11.4601 28.4532 11.4551 28.5473 11.4465L28.5473 27.9328ZM30.4315 8.35265C30.4315 9.549 29.4582 10.5223 28.2619 10.5223H3.73723C2.54095 10.5223 1.56763 9.549 1.56763 8.35265V5.98422C1.56763 4.79688 2.52644 3.82982 3.71034 3.81531V5.81622C3.71034 6.8153 4.52316 7.62812 5.52224 7.62812C6.52132 7.62812 7.33414 6.8153 7.33414 5.81622V3.81462H8.94896V5.81622C8.94896 6.8153 9.76178 7.62812 10.7609 7.62812C11.7599 7.62812 12.5728 6.8153 12.5728 5.81622V3.81462H14.1876V5.81622C14.1876 6.8153 15.0004 7.62812 15.9995 7.62812C16.9986 7.62812 17.8114 6.8153 17.8114 5.81622V3.81462H19.4264V5.81603C19.4264 6.81511 20.2393 7.62799 21.2383 7.62799C21.7229 7.62799 22.1779 7.43936 22.5188 7.0976C22.5568 7.05958 22.5875 7.02613 22.6151 6.99237C22.7793 6.79204 22.75 6.49661 22.5497 6.33242C22.3494 6.1683 22.0539 6.19749 21.8897 6.39789C21.8825 6.40676 21.8711 6.41889 21.8553 6.43459C21.691 6.59934 21.4719 6.69006 21.2383 6.69006C20.7563 6.69006 20.3642 6.29797 20.3642 5.81597V1.81196C20.3642 1.33002 20.7563 0.937868 21.2383 0.937868C21.7199 0.937868 22.1118 1.32996 22.1118 1.81196V4.87816C22.1118 5.13714 22.3216 5.3471 22.5807 5.3471C22.8397 5.3471 23.0496 5.13714 23.0496 4.87816V3.81462H24.6648V5.81622C24.6648 6.8153 25.4776 7.62812 26.4767 7.62812C27.4757 7.62812 28.2886 6.8153 28.2886 5.81622V3.81531C29.4725 3.82982 30.4313 4.79688 30.4313 5.98422V8.35265H30.4315Z" fill="#71788E" />
                                        <path d="M21.1801 14.5982C20.6136 14.2784 19.9566 14.1982 19.3299 14.3724C18.7032 14.5467 18.182 14.9547 17.8621 15.5212L15.3285 20.0073L14.2851 18.6609C13.4625 17.5994 11.9297 17.4052 10.8678 18.2281C10.354 18.6266 10.026 19.2014 9.94435 19.8469C9.8627 20.4923 10.0372 21.1308 10.4357 21.6446L11.6856 23.2565C11.8443 23.4612 12.1389 23.4984 12.3435 23.3397C12.5481 23.181 12.5855 22.8864 12.4267 22.6818L11.1768 21.0699C10.9319 20.7541 10.8246 20.3615 10.8748 19.9646C10.925 19.5678 11.1266 19.2143 11.4424 18.9694C12.0952 18.4634 13.0379 18.5828 13.5437 19.2355L15.0193 21.1393C15.1155 21.2634 15.2675 21.3313 15.4239 21.3198C15.5805 21.3083 15.721 21.2194 15.7982 21.0827L18.6788 15.9824C18.8754 15.6341 19.1959 15.3833 19.5811 15.2761C19.9667 15.1689 20.3707 15.2183 20.719 15.415C21.4378 15.821 21.6923 16.7363 21.2866 17.4552L16.9517 25.1301C16.7044 25.5679 16.2577 25.8509 15.7538 25.8874C15.7186 25.8901 15.6828 25.8916 15.6475 25.8916C15.1883 25.8916 14.746 25.6746 14.4644 25.311L13.5535 24.1356C13.3948 23.9309 13.1003 23.8935 12.8956 24.0522C12.6909 24.2108 12.6535 24.5054 12.8122 24.71L13.7231 25.8854C14.181 26.4765 14.9004 26.8294 15.6475 26.8294C15.7074 26.8294 15.768 26.827 15.8246 26.8225C16.6396 26.7635 17.3662 26.3032 17.7684 25.5913L22.1032 17.9162C22.7633 16.7469 22.3492 15.2585 21.1801 14.5982Z" fill="#71788E" />
                                    </g>
                                    <defs>
                                        <clipPath id="clip0_1_748">
                                            <rect width="32" height="32" fill="white" />
                                        </clipPath>
                                    </defs>
                                </svg>