  <svg  viewBox="0 0 32 32" fill="none" xmlns="http://www.w3.org/2000/svg">
                                    <path d="M31.9757 21.363L31.9759 21.3629L27.0781 6.66953L28.4333 6.94053C28.4643 6.94678 28.4952 6.94972 28.5257 6.94972C28.7446 6.94972 28.9403 6.7956 28.9849 6.57278C29.0356 6.31891 28.871 6.07197 28.6171 6.02122L17.4586 3.78953C17.3868 3.22478 16.9937 2.75916 16.4688 2.58216V1.97184C16.4688 1.71297 16.2589 1.50309 16 1.50309C15.7411 1.50309 15.5312 1.71297 15.5312 1.97184V2.58216C15.1893 2.69747 14.9034 2.93509 14.7257 3.24297L3.56669 1.01116C3.31263 0.960345 3.06588 1.12503 3.01513 1.37891C2.96438 1.63278 3.129 1.87972 3.38287 1.93047L5.05337 2.26453L0.0240625 17.3548L0.0243125 17.3549C0.00875 17.4015 0 17.4512 0 17.503C0 20.2478 2.45781 22.4808 5.47881 22.4808C8.49988 22.4808 10.9577 20.2478 10.9577 17.503C10.9577 17.4513 10.9489 17.4016 10.9334 17.355L10.9336 17.3548L5.96425 2.44666L14.5414 4.1621C14.6132 4.72691 15.0063 5.19247 15.5312 5.36953V17.6123C14.9495 17.8085 14.5293 18.3589 14.5293 19.006V27.5555H13.0096C12.1986 27.5555 11.48 28.042 11.1788 28.795L10.6726 30.0605H9.98787C9.729 30.0605 9.51912 30.2704 9.51912 30.5293C9.51912 30.7882 9.729 30.998 9.98787 30.998H22.0121C22.2709 30.998 22.4808 30.7882 22.4808 30.5293C22.4808 30.2704 22.2709 30.0605 22.0121 30.0605H21.3274L20.8212 28.795C20.52 28.042 19.8014 27.5555 18.9904 27.5555H17.4708V19.006C17.4708 18.3589 17.0505 17.8085 16.4688 17.6123V5.36953C16.8107 5.25422 17.0966 5.01659 17.2743 4.70872L26.0338 6.4606L21.0664 21.3628L21.0666 21.3631C21.0511 21.4097 21.0423 21.4593 21.0423 21.5111C21.0423 24.2558 23.5001 26.4889 26.5212 26.4889C29.5422 26.4889 32 24.2558 32 21.5111C32 21.4593 31.9912 21.4096 31.9757 21.363ZM9.83856 17.0343H8.98606C8.72719 17.0343 8.51731 17.2442 8.51731 17.503C8.51731 17.7619 8.72719 17.9718 8.98606 17.9718H9.98981C9.72788 19.9796 7.80475 21.5433 5.47881 21.5433C3.15288 21.5433 1.22981 19.9796 0.967875 17.9718H6.98175C7.24062 17.9718 7.4505 17.7619 7.4505 17.503C7.4505 17.2442 7.24062 17.0343 6.98175 17.0343H1.11913L5.47881 3.9551L9.83856 17.0343ZM18.9905 28.493C19.4159 28.493 19.7928 28.7482 19.9508 29.1431L20.3178 30.0605H11.6823L12.0493 29.1431C12.2072 28.7482 12.5842 28.493 13.0096 28.493H18.9905ZM16.5333 19.006V27.5555H15.4668V19.006C15.4668 18.712 15.706 18.4728 16 18.4728C16.294 18.4728 16.5333 18.712 16.5333 19.006ZM16 4.5091C15.7059 4.5091 15.4668 4.26985 15.4668 3.97578C15.4668 3.68172 15.706 3.44253 16 3.44253C16.294 3.44253 16.5333 3.68178 16.5333 3.97578C16.5333 4.26978 16.2941 4.5091 16 4.5091ZM26.5212 25.5514C24.1953 25.5514 22.2722 23.9877 22.0102 21.9798H28.0241C28.2829 21.9798 28.4928 21.77 28.4928 21.5111C28.4928 21.2522 28.2829 21.0423 28.0241 21.0423H22.1614L26.5212 7.96316L30.8809 21.0423H30.0284C29.7695 21.0423 29.5596 21.2522 29.5596 21.5111C29.5596 21.77 29.7695 21.9798 30.0284 21.9798H31.0321C30.7702 23.9877 28.8471 25.5514 26.5212 25.5514Z" fill="#71788E" />
                                    <path d="M6.81198 13.1637C6.62892 12.9806 6.33211 12.9806 6.14911 13.1637L5.47855 13.8342L4.80798 13.1637C4.62492 12.9806 4.32811 12.9806 4.14511 13.1637C3.96205 13.3467 3.96205 13.6435 4.14511 13.8265L4.81567 14.4971L4.14511 15.1677C3.96205 15.3507 3.96205 15.6475 4.14511 15.8305C4.23661 15.9221 4.35661 15.9679 4.47655 15.9679C4.59648 15.9679 4.71648 15.9221 4.80798 15.8305L5.47855 15.16L6.14911 15.8305C6.24061 15.9221 6.36061 15.9679 6.48055 15.9679C6.60048 15.9679 6.72048 15.9221 6.81198 15.8305C6.99505 15.6475 6.99505 15.3507 6.81198 15.1677L6.14142 14.4971L6.81198 13.8265C6.99505 13.6435 6.99505 13.3467 6.81198 13.1637Z" fill="#71788E" />
                                    <path d="M27.6931 17.1715L26.0205 18.844L25.35 18.1735C25.1669 17.9904 24.8701 17.9904 24.6871 18.1735C24.504 18.3565 24.504 18.6534 24.6871 18.8364L25.6891 19.8384C25.7806 19.9299 25.9006 19.9757 26.0205 19.9757C26.1405 19.9757 26.2605 19.9299 26.352 19.8384L28.356 17.8344C28.539 17.6513 28.539 17.3545 28.356 17.1715C28.173 16.9884 27.8762 16.9884 27.6931 17.1715Z" fill="#71788E" />
                                </svg>