 <svg  viewBox="0 0 32 32" fill="none" xmlns="http://www.w3.org/2000/svg">
                                    <g clip-path="url(#clip0_1_742)">
                                        <path d="M19.6775 5.99667C17.8542 4.17372 15.4157 3.18555 12.8371 3.18555C10.2585 3.18555 7.82034 4.17396 5.99671 5.99667C2.23287 9.75989 2.23287 15.9145 5.99671 19.6775C7.82034 21.5004 10.2585 22.4886 12.8371 22.4886C15.4157 22.4886 17.8542 21.5004 19.6775 19.6775C21.5007 17.8545 22.4887 15.4151 22.4887 12.8371C22.4887 10.2591 21.5007 7.81963 19.6775 5.99667ZM18.9748 18.9747C17.3309 20.6182 15.1623 21.5516 12.8371 21.5516C10.5122 21.5516 8.34359 20.6182 6.6995 18.9747C3.30593 15.5817 3.30593 10.0925 6.6995 6.69946C8.34359 5.05599 10.5122 4.12259 12.8371 4.12259C15.1623 4.12259 17.3309 5.05599 18.9748 6.69946C20.6188 8.34316 21.5516 10.5127 21.5516 12.8371C21.5516 15.1614 20.6188 17.331 18.9748 18.9747Z" fill="#71788E" />
                                        <path d="M31.4846 26.8931C30.7705 25.085 29.413 23.1348 27.6428 21.3646C26.5934 20.3153 25.452 19.3705 24.3163 18.6471C25.2201 16.8691 25.675 14.8897 25.675 12.8375C25.675 9.40828 24.3516 6.17297 21.9268 3.74817C19.502 1.32361 16.2667 0 12.8375 0C9.40849 0 6.173 1.32361 3.74817 3.74817C1.32358 6.17297 0 9.40828 0 12.8375C0 16.2664 1.32358 19.5022 3.74817 21.9268C6.173 24.3516 9.40849 25.675 12.8375 25.675C14.8898 25.675 16.8693 25.1735 18.6471 24.2694C19.3701 25.4049 20.3148 26.5932 21.3646 27.6428C21.7911 28.0693 22.226 28.4337 22.6764 28.8141C22.7655 28.8895 22.8491 28.9546 22.9575 28.9546C23.0926 28.9546 23.2384 28.8785 23.3324 28.7672C23.5016 28.5665 23.4862 28.2805 23.2855 28.1113C22.8553 27.748 22.4282 27.3477 22.0205 26.94C21.0334 25.9529 20.1719 24.9095 19.4905 23.8477C20.3665 23.3165 21.1836 22.6697 21.9268 21.9268C22.6697 21.1836 23.3165 20.3665 23.8477 19.4905C24.9098 20.1726 25.9536 21.0342 26.94 22.0205C28.6204 23.7009 29.9272 25.5314 30.5944 27.2211C31.2026 28.7604 31.1919 29.997 30.5944 30.5944C29.6442 31.5446 27.1621 30.9331 24.5505 29.0952C24.3357 28.944 24.0457 29.0209 23.8946 29.2357C23.7437 29.4503 23.7737 29.7405 23.9883 29.8917C25.4282 30.9048 26.8676 31.5765 28.1113 31.8594C28.5351 31.9556 28.9159 32 29.2826 32C30.1092 32 30.8177 31.7767 31.2972 31.2972C32.1883 30.4063 32.2493 28.8294 31.4846 26.8931ZM21.224 21.224C18.9789 23.4691 16.0128 24.7379 12.8375 24.7379C9.6624 24.7379 6.69609 23.4691 4.45095 21.224C2.20557 18.9787 0.937043 16.0125 0.937043 12.8375C0.937043 9.66219 2.20557 6.69607 4.45095 4.45095C6.69585 2.20583 9.6624 0.937042 12.8375 0.937042C16.0128 0.937042 18.9789 2.20583 21.224 4.45095C23.4692 6.69607 24.7379 9.66219 24.7379 12.8375C24.7379 16.0125 23.4692 18.9787 21.224 21.224Z" fill="#71788E" />
                                        <path d="M17.57 8.66748C16.7291 8.19381 15.8876 8.05683 15.0868 8.33951C14.0172 8.71732 13.2745 9.71595 12.8379 10.4479C12.4011 9.71595 11.6587 8.71732 10.589 8.33951C9.78817 8.05683 8.94672 8.19381 8.10584 8.66748C7.11407 9.22625 6.57776 10.1503 6.60657 11.338C6.63587 12.5439 7.23312 13.9548 8.29325 15.2736C9.39831 16.6477 10.8762 17.8289 12.6036 18.6938C12.6708 18.7273 12.7649 18.7407 12.8379 18.7407C12.9107 18.7407 13.0053 18.7273 13.0722 18.6938C14.8418 17.8076 16.3653 16.5934 17.4763 15.1799C17.6386 14.9733 17.5889 14.6866 17.3826 14.524C17.1762 14.3614 16.889 14.3642 16.7266 14.5708C15.761 15.7997 14.3734 16.9049 12.8379 17.7099C11.3219 16.9167 10.0176 15.8765 9.04288 14.6645C8.11289 13.5079 7.56803 12.3358 7.54361 11.338C7.52311 10.4954 7.88437 9.85278 8.57436 9.46396C9.17352 9.1265 9.72316 9.08753 10.261 9.27655C11.6059 9.74949 12.4087 11.6472 12.4162 11.666C12.4885 11.8467 12.6436 11.994 12.8379 11.994C13.0323 11.994 13.1873 11.8467 13.2596 11.666C13.2615 11.6611 13.4926 11.1894 13.8687 10.6353C14.2022 10.144 14.726 9.51963 15.4148 9.27655C15.9536 9.08606 16.5016 9.12601 17.1014 9.46396C17.6398 9.76744 18.7587 10.7408 17.6168 13.1184C17.503 13.3554 17.6145 13.6604 17.8511 13.7744C18.0874 13.8881 18.3932 13.7771 18.507 13.5401C19.5256 11.419 19.1538 9.55955 17.57 8.66748Z" fill="#71788E" />
                                    </g>
                                    <defs>
                                        <clipPath id="clip0_1_742">
                                            <rect width="32" height="32" fill="white" />
                                        </clipPath>
                                    </defs>
                                </svg>
