<svg width="12" height="12" viewBox="0 0 12 12" fill="none" xmlns="http://www.w3.org/2000/svg">
<path d="M6 0C4.81331 0 3.65328 0.351894 2.66658 1.01118C1.67989 1.67047 0.910851 2.60754 0.456726 3.7039C0.00259972 4.80026 -0.11622 6.00666 0.115291 7.17054C0.346802 8.33443 0.918247 9.40353 1.75736 10.2426C2.59648 11.0818 3.66558 11.6532 4.82946 11.8847C5.99335 12.1162 7.19975 11.9974 8.2961 11.5433C9.39246 11.0892 10.3295 10.3201 10.9888 9.33342C11.6481 8.34673 12 7.18669 12 6C11.9983 4.40923 11.3656 2.88411 10.2407 1.75926C9.1159 0.634414 7.59077 0.00172054 6 0V0ZM6 1.5C6.93382 1.5001 7.8442 1.79243 8.6035 2.336L2.336 8.603C1.8562 7.9307 1.57101 7.13915 1.51175 6.31532C1.4525 5.49149 1.62148 4.66728 2.00013 3.93323C2.37878 3.19918 2.95244 2.58371 3.65809 2.15445C4.36373 1.72519 5.17405 1.49875 6 1.5ZM6 10.5C5.06633 10.5 4.1561 10.2076 3.397 9.664L9.664 3.3965C10.1439 4.06881 10.4293 4.86041 10.4886 5.68431C10.5479 6.50821 10.379 7.33253 10.0003 8.06666C9.62162 8.80079 9.0479 9.41632 8.34218 9.84561C7.63645 10.2749 6.82604 10.5013 6 10.5Z" fill="#E1E7F9"/>
</svg>
