<svg width="49" height="48" viewBox="0 0 49 48" fill="none" xmlns="http://www.w3.org/2000/svg">
<path d="M45.7308 45.6922H3.26928C3.01442 45.6922 2.80774 45.4857 2.80774 45.2307V15.6923C2.80774 15.4374 3.01442 15.2307 3.26928 15.2307H45.7308C45.9858 15.2307 46.1924 15.4374 46.1924 15.6923V45.2307C46.1924 45.4857 45.9858 45.6922 45.7308 45.6922ZM3.73082 44.7692H45.2693V16.1538H3.73082V44.7692Z" fill="black"/>
<path d="M45.7308 16.1539C45.4759 16.1539 45.2693 15.9472 45.2693 15.6923V7.84617H3.73082V15.6923C3.73082 15.9472 3.52414 16.1539 3.26928 16.1539C3.01442 16.1539 2.80774 15.9472 2.80774 15.6923V7.38463C2.80774 7.12977 3.01442 6.9231 3.26928 6.9231H45.7308C45.9858 6.9231 46.1924 7.12977 46.1924 7.38463V15.6923C46.1924 15.9472 45.9858 16.1539 45.7308 16.1539Z" fill="black"/>
<path d="M10.6539 12.4615C8.87242 12.4615 7.4231 11.0121 7.4231 9.23069V5.53839C7.4231 3.75694 8.87242 2.30762 10.6539 2.30762C12.4353 2.30762 13.8846 3.75694 13.8846 5.53839V7.38454C13.8846 7.6394 13.678 7.84608 13.4231 7.84608C13.1682 7.84608 12.9616 7.6394 12.9616 7.38454V5.53839C12.9616 4.26592 11.9263 3.23069 10.6539 3.23069C9.3814 3.23069 8.34617 4.26592 8.34617 5.53839V9.23069C8.34617 10.5032 9.3814 11.5384 10.6539 11.5384C10.9087 11.5384 11.1154 11.7451 11.1154 11.9999C11.1154 12.2548 10.9087 12.4615 10.6539 12.4615Z" fill="black"/>
<path d="M19.8843 12.4615C18.1029 12.4615 16.6536 11.0121 16.6536 9.23069V5.53839C16.6536 3.75694 18.1029 2.30762 19.8843 2.30762C21.6658 2.30762 23.1151 3.75694 23.1151 5.53839V7.38454C23.1151 7.6394 22.9084 7.84608 22.6536 7.84608C22.3987 7.84608 22.192 7.6394 22.192 7.38454V5.53839C22.192 4.26592 21.1568 3.23069 19.8843 3.23069C18.6119 3.23069 17.5766 4.26592 17.5766 5.53839V9.23069C17.5766 10.5032 18.6119 11.5384 19.8843 11.5384C20.1392 11.5384 20.3459 11.7451 20.3459 11.9999C20.3459 12.2548 20.1392 12.4615 19.8843 12.4615Z" fill="black"/>
<path d="M29.1158 12.4615C27.3343 12.4615 25.885 11.0121 25.885 9.23069V5.53839C25.885 3.75694 27.3343 2.30762 29.1158 2.30762C30.8972 2.30762 32.3465 3.75694 32.3465 5.53839V7.38454C32.3465 7.6394 32.14 7.84608 31.885 7.84608C31.6301 7.84608 31.4235 7.6394 31.4235 7.38454V5.53839C31.4235 4.26592 30.3882 3.23069 29.1158 3.23069C27.8433 3.23069 26.8081 4.26592 26.8081 5.53839V9.23069C26.8081 10.5032 27.8433 11.5384 29.1158 11.5384C29.3707 11.5384 29.5773 11.7451 29.5773 11.9999C29.5773 12.2548 29.3707 12.4615 29.1158 12.4615Z" fill="black"/>
<path d="M38.3462 12.4615C36.5648 12.4615 35.1155 11.0121 35.1155 9.23069V5.53839C35.1155 3.75694 36.5648 2.30762 38.3462 2.30762C40.1277 2.30762 41.577 3.75694 41.577 5.53839V7.38454C41.577 7.6394 41.3704 7.84608 41.1155 7.84608C40.8605 7.84608 40.6539 7.6394 40.6539 7.38454V5.53839C40.6539 4.26592 39.6187 3.23069 38.3462 3.23069C37.0738 3.23069 36.0386 4.26592 36.0386 5.53839V9.23069C36.0386 10.5032 37.0738 11.5384 38.3462 11.5384C38.6012 11.5384 38.8078 11.7451 38.8078 11.9999C38.8078 12.2548 38.6012 12.4615 38.3462 12.4615Z" fill="black"/>
<path d="M23.577 19.8462H3.26928C3.01442 19.8462 2.80774 19.6395 2.80774 19.3846C2.80774 19.1298 3.01442 18.9231 3.26928 18.9231H23.577C23.8318 18.9231 24.0385 19.1298 24.0385 19.3846C24.0385 19.6395 23.8318 19.8462 23.577 19.8462Z" fill="black"/>
<path d="M45.7313 42H25.4236C25.1686 42 24.962 41.7934 24.962 41.5384C24.962 41.2835 25.1686 41.0769 25.4236 41.0769H45.7313C45.9862 41.0769 46.1928 41.2835 46.1928 41.5384C46.1928 41.7934 45.9862 42 45.7313 42Z" fill="black"/>
<path d="M16.9146 39.0259C16.7931 39.0259 16.6754 38.9778 16.5883 38.8907C16.4856 38.788 16.4372 38.6428 16.4578 38.4991L17.1105 33.9301C17.1246 33.8313 17.1704 33.7397 17.241 33.6691L27.0317 23.8784C27.6419 23.2681 28.4532 22.9321 29.3162 22.9321C30.1792 22.9321 30.9905 23.2682 31.6007 23.8784C32.8603 25.138 32.8603 27.1877 31.6007 28.4473L21.8101 38.238C21.7394 38.3087 21.6478 38.3545 21.5489 38.3687L16.9799 39.0213C16.9582 39.0244 16.9364 39.0259 16.9146 39.0259ZM18.0026 34.2131L17.4586 38.0205L21.2661 37.4766L30.9481 27.7946C31.3839 27.3587 31.6239 26.7792 31.6239 26.1628C31.6239 25.5464 31.3838 24.9669 30.9481 24.5311C30.5121 24.0951 29.9327 23.8551 29.3162 23.8551C28.6997 23.8551 28.1203 24.0951 27.6843 24.5309L18.0026 34.2131Z" fill="black"/>
<path d="M21.4833 38.3733C21.3652 38.3733 21.2471 38.3282 21.1569 38.2381L17.2407 34.3217C17.0604 34.1415 17.0604 33.8493 17.2407 33.6691C17.421 33.4888 17.7132 33.4889 17.8934 33.6691L21.8096 37.5854C21.9899 37.7656 21.9899 38.0579 21.8096 38.2381C21.7195 38.3282 21.6015 38.3733 21.4833 38.3733Z" fill="black"/>
<path d="M30.622 29.2354C30.5039 29.2354 30.3857 29.1903 30.2957 29.1002L26.3793 25.1838C26.1991 25.0036 26.1991 24.7114 26.3793 24.5312C26.5594 24.3509 26.8519 24.3509 27.032 24.5312L30.9483 28.4475C31.1286 28.6277 31.1286 28.92 30.9483 29.1002C30.8583 29.1903 30.7401 29.2354 30.622 29.2354Z" fill="black"/>
</svg>
