<svg width="48" height="48" viewBox="0 0 48 48" fill="none" xmlns="http://www.w3.org/2000/svg">
<path d="M42.4616 37.3845H5.53849C3.24806 37.3845 1.38464 35.5211 1.38464 33.2307V5.53837C1.38464 3.24794 3.24806 1.38452 5.53849 1.38452H42.4616C44.752 1.38452 46.6154 3.24794 46.6154 5.53837V33.2307C46.6154 35.5211 44.752 37.3845 42.4616 37.3845ZM5.53849 2.3076C3.75704 2.3076 2.30772 3.75692 2.30772 5.53837V33.2307C2.30772 35.0121 3.75704 36.4614 5.53849 36.4614H42.4616C44.243 36.4614 45.6923 35.0121 45.6923 33.2307V5.53837C45.6923 3.75692 44.243 2.3076 42.4616 2.3076H5.53849Z" fill="black"/>
<path d="M37.848 46.6154C37.8475 46.6154 37.8468 46.6154 37.8462 46.6154H10.1539C9.96724 46.6154 9.79887 46.503 9.72743 46.3304C9.65607 46.158 9.69549 45.9594 9.82749 45.8275L13.5198 42.1352C13.6064 42.0486 13.7237 42 13.8462 42H34.1539C34.2763 42 34.3937 42.0486 34.4802 42.1352L38.1489 45.8038C38.2472 45.8885 38.3095 46.0138 38.3095 46.1538C38.3096 46.4088 38.1029 46.6154 37.848 46.6154ZM11.2681 45.6923H36.7319L33.9626 42.9231H14.0374L11.2681 45.6923Z" fill="black"/>
<path d="M31.3849 42.923H16.6157C16.3609 42.923 16.1542 42.7164 16.1542 42.4614V36.923C16.1542 36.668 16.3609 36.4614 16.6157 36.4614H31.3849C31.6399 36.4614 31.8465 36.668 31.8465 36.923V42.4614C31.8465 42.7164 31.6399 42.923 31.3849 42.923ZM17.0773 41.9999H30.9234V37.3845H17.0773V41.9999Z" fill="black"/>
<path d="M46.1539 33.6923H20.1493C18.3424 33.6923 16.6437 32.9886 15.3659 31.7109C14.2627 30.6076 12.7957 30 11.2354 30H1.84618C1.59132 30 1.38464 29.7934 1.38464 29.5384C1.38464 29.2835 1.59132 29.0769 1.84618 29.0769H11.2354C13.0423 29.0769 14.741 29.7806 16.0187 31.0583C17.122 32.1616 18.589 32.7692 20.1493 32.7692H46.1539C46.4088 32.7692 46.6154 32.9758 46.6154 33.2308C46.6154 33.4857 46.4088 33.6923 46.1539 33.6923Z" fill="black"/>
<path d="M29.5385 28.1538H18.4616C17.1891 28.1538 16.1539 27.1186 16.1539 25.8461C16.1539 25.2601 16.3734 24.7245 16.7346 24.3172C15.8573 23.99 15.2308 23.1436 15.2308 22.1538C15.2308 21.5679 15.4503 21.0322 15.8115 20.6248C14.9342 20.2977 14.3077 19.4513 14.3077 18.4615C14.3077 17.8756 14.5272 17.3399 14.8884 16.9324C14.0111 16.6054 13.3846 15.759 13.3846 14.7692C13.3846 13.4968 14.4199 12.4615 15.6923 12.4615H24.1763L22.3115 8.73201C21.9173 7.94343 21.9586 7.02478 22.4221 6.27469C22.8857 5.52469 23.6888 5.0769 24.5706 5.0769C25.5334 5.0769 26.399 5.61183 26.8295 6.47306L29.8825 12.5791L33.4373 14.3564C33.5936 14.4346 33.6923 14.5944 33.6923 14.7692V25.8461C33.6923 26.021 33.5936 26.1807 33.4372 26.2589L29.7449 28.1051C29.6808 28.1371 29.6101 28.1538 29.5385 28.1538ZM18.9231 24C18.9231 24.2549 18.7164 24.4615 18.4616 24.4615C17.6981 24.4615 17.077 25.0827 17.077 25.8461C17.077 26.6096 17.6981 27.2308 18.4616 27.2308H29.4295L32.7693 25.5609V15.0544L29.3321 13.3359C29.2427 13.2912 29.1704 13.2187 29.1258 13.1295L26.004 6.88586C25.7308 6.33949 25.1816 5.99998 24.5707 5.99998C24.0112 5.99998 23.5016 6.2841 23.2075 6.75995C22.9133 7.23589 22.8871 7.81872 23.1373 8.31921L25.336 12.7167C25.4075 12.8597 25.3999 13.0297 25.3158 13.1657C25.2316 13.3018 25.083 13.3846 24.9231 13.3846H15.6923C14.9289 13.3846 14.3077 14.0057 14.3077 14.7692C14.3077 15.5327 14.9289 16.1538 15.6923 16.1538H16.6154C16.8703 16.1538 17.077 16.3605 17.077 16.6154C17.077 16.8702 16.8703 17.0769 16.6154 17.0769C15.8519 17.0769 15.2308 17.698 15.2308 18.4615C15.2308 19.225 15.8519 19.8461 16.6154 19.8461H17.5385C17.7934 19.8461 18 20.0528 18 20.3077C18 20.5625 17.7934 20.7692 17.5385 20.7692C16.775 20.7692 16.1539 21.3904 16.1539 22.1538C16.1539 22.9173 16.775 23.5384 17.5385 23.5384H18.4616C18.7164 23.5384 18.9231 23.745 18.9231 24Z" fill="black"/>
<path d="M42.4616 28.1537H33.2308C32.9759 28.1537 32.7693 27.9471 32.7693 27.6922V12.923C32.7693 12.6681 32.9759 12.4614 33.2308 12.4614H42.4616C42.7165 12.4614 42.9231 12.6681 42.9231 12.923V27.6922C42.9231 27.9471 42.7165 28.1537 42.4616 28.1537ZM33.6924 27.2307H42.0001V13.3845H33.6924V27.2307Z" fill="black"/>
<path d="M19.3849 17.0769H16.6157C16.3609 17.0769 16.1542 16.8702 16.1542 16.6153C16.1542 16.3605 16.3609 16.1538 16.6157 16.1538H19.3849C19.6398 16.1538 19.8465 16.3605 19.8465 16.6153C19.8465 16.8702 19.6398 17.0769 19.3849 17.0769Z" fill="black"/>
<path d="M20.3077 20.769H17.5385C17.2836 20.769 17.077 20.5623 17.077 20.3075C17.077 20.0526 17.2836 19.8459 17.5385 19.8459H20.3077C20.5626 19.8459 20.7693 20.0526 20.7693 20.3075C20.7693 20.5623 20.5626 20.769 20.3077 20.769Z" fill="black"/>
<path d="M20.3077 24.4614H18.4615C18.2067 24.4614 18 24.2548 18 23.9999C18 23.7449 18.2067 23.5383 18.4615 23.5383H20.3077C20.5626 23.5383 20.7692 23.7449 20.7692 23.9999C20.7692 24.2548 20.5626 24.4614 20.3077 24.4614Z" fill="black"/>
<path d="M7.38466 33.6921H5.5385C5.28364 33.6921 5.07697 33.4855 5.07697 33.2306C5.07697 32.9756 5.28364 32.769 5.5385 32.769H7.38466C7.63952 32.769 7.8462 32.9756 7.8462 33.2306C7.8462 33.4855 7.63952 33.6921 7.38466 33.6921Z" fill="black"/>
<path d="M12.9228 33.6921H11.0767C10.8218 33.6921 10.6151 33.4855 10.6151 33.2306C10.6151 32.9756 10.8218 32.769 11.0767 32.769H12.9228C13.1777 32.769 13.3843 32.9756 13.3843 33.2306C13.3843 33.4855 13.1777 33.6921 12.9228 33.6921Z" fill="black"/>
</svg>
