<svg width="49" height="48" viewBox="0 0 49 48" fill="none" xmlns="http://www.w3.org/2000/svg">
<path d="M18.0372 27.4344C15.3935 27.4344 12.908 26.405 11.0387 24.5356C9.16934 22.6662 8.13974 20.1808 8.13974 17.5371C8.13974 14.8934 9.16925 12.4079 11.0387 10.5386C12.9081 8.66925 15.3935 7.63965 18.0372 7.63965C20.6808 7.63965 23.1662 8.66916 25.0356 10.5386C28.8947 14.3976 28.8947 20.6766 25.0356 24.5356C23.1662 26.405 20.6808 27.4344 18.0372 27.4344ZM18.0372 8.56273C15.64 8.56273 13.3864 9.49623 11.6914 11.1913C9.99632 12.8863 9.06282 15.1399 9.06282 17.5371C9.06282 19.9342 9.99632 22.1878 11.6914 23.8829C13.3864 25.5779 15.64 26.5114 18.0372 26.5114C20.4343 26.5114 22.6879 25.578 24.383 23.8829C27.882 20.3838 27.882 14.6904 24.383 11.1913C22.6879 9.49623 20.4343 8.56273 18.0372 8.56273Z" fill="black"/>
<path d="M18.0193 23.7271C16.4876 23.7271 14.9559 23.1441 13.79 21.978C11.4579 19.646 11.4579 15.8515 13.79 13.5194C13.9703 13.3392 14.2624 13.3392 14.4427 13.5194C14.623 13.6997 14.623 13.9919 14.4427 14.1721C13.4874 15.1275 12.9613 16.3978 12.9613 17.7488C12.9613 19.0998 13.4874 20.37 14.4427 21.3253C15.398 22.2807 16.6682 22.8068 18.0193 22.8068C19.3703 22.8068 20.6404 22.2806 21.5958 21.3253C21.7761 21.1451 22.0682 21.1451 22.2485 21.3253C22.4288 21.5056 22.4288 21.7978 22.2485 21.978C21.0826 23.1441 19.5509 23.7271 18.0193 23.7271Z" fill="black"/>
<path d="M32.5942 30.1297C32.4761 30.1297 32.3579 30.0847 32.2679 29.9945L28.5531 26.2798C28.3728 26.0996 28.3728 25.8073 28.5531 25.6272C28.7332 25.4469 29.0256 25.4469 29.2057 25.6272L32.9205 29.3419C33.1007 29.5221 33.1007 29.8143 32.9205 29.9945C32.8305 30.0847 32.7123 30.1297 32.5942 30.1297Z" fill="black"/>
<path d="M30.1683 32.556C30.0503 32.556 29.932 32.511 29.842 32.4208L26.1273 28.706C25.947 28.5259 25.947 28.2336 26.1273 28.0534C26.3074 27.8731 26.5998 27.8731 26.7799 28.0534L30.4946 31.7682C30.6749 31.9483 30.6749 32.2406 30.4946 32.4208C30.4046 32.511 30.2865 32.556 30.1683 32.556Z" fill="black"/>
<path d="M42.3 45.6923C41.2602 45.6923 40.2827 45.2873 39.5475 44.552L28.6293 33.634C28.5427 33.5474 28.4941 33.4301 28.4941 33.3077C28.4941 33.1853 28.5426 33.0679 28.6293 32.9814L33.4818 28.1289C33.5684 28.0423 33.6857 27.9937 33.8081 27.9937C33.9305 27.9937 34.048 28.0422 34.1344 28.1289L45.0524 39.0469C45.7877 39.7822 46.1927 40.7598 46.1927 41.7995C46.1927 42.8393 45.7877 43.8169 45.0524 44.552C44.3175 45.2873 43.3398 45.6923 42.3 45.6923ZM29.6084 33.3077L40.2001 43.8994C40.761 44.4602 41.5068 44.7692 42.3 44.7692C43.0933 44.7692 43.839 44.4602 44.3998 43.8994C44.9608 43.3385 45.2697 42.5928 45.2697 41.7995C45.2697 41.0063 44.9608 40.2605 44.3999 39.6996L33.8082 29.1079L29.6084 33.3077Z" fill="black"/>
<path d="M18.0375 31.7232C18.0372 31.7232 18.037 31.7232 18.0366 31.7232C14.2473 31.7229 10.6849 30.2474 8.00581 27.5683C2.47455 22.037 2.47455 13.0369 8.00581 7.50563C10.6852 4.82622 14.2478 3.35059 18.0372 3.35059C21.8265 3.35059 25.389 4.82622 28.0684 7.50563C33.1188 12.556 33.6242 20.6087 29.2441 26.2369C28.8813 26.703 28.4857 27.1509 28.0684 27.5683C27.6511 27.9856 27.2032 28.3812 26.737 28.7439C24.2684 30.6651 21.1789 31.7232 18.0375 31.7232ZM18.0372 4.27366C14.4944 4.27366 11.1637 5.65329 8.65851 8.15834C3.48716 13.3297 3.48716 21.7442 8.65851 26.9156C11.1633 29.4204 14.4938 30.7999 18.0367 30.8001H18.0375C20.9747 30.8002 23.8626 29.8112 26.1701 28.0154C26.6064 27.676 27.0254 27.306 27.4158 26.9156C27.8062 26.5253 28.1761 26.1061 28.5156 25.67C32.6103 20.4085 32.1375 12.8802 27.4158 8.15843C24.9106 5.65329 21.5799 4.27366 18.0372 4.27366Z" fill="black"/>
<path d="M42.0385 42.4614C42.5483 42.4614 42.9615 42.0481 42.9615 41.5383C42.9615 41.0285 42.5483 40.6152 42.0385 40.6152C41.5287 40.6152 41.1154 41.0285 41.1154 41.5383C41.1154 42.0481 41.5287 42.4614 42.0385 42.4614Z" fill="black"/>
<path d="M30.9615 38.3074C30.8435 38.3074 30.7252 38.2624 30.6352 38.1722C30.4549 37.992 30.4549 37.6998 30.6352 37.5196L38.0198 30.135C38.1999 29.9547 38.4923 29.9547 38.6724 30.135C38.8527 30.3151 38.8527 30.6074 38.6724 30.7876L31.2878 38.1722C31.1978 38.2624 31.0796 38.3074 30.9615 38.3074Z" fill="black"/>
<path d="M40.1923 19.3589C40.0236 19.3589 39.8683 19.2669 39.7873 19.1188L38.3928 16.5688L35.8427 15.1741C35.6946 15.0932 35.6026 14.9379 35.6026 14.7692C35.6026 14.6004 35.6946 14.4452 35.8427 14.3642L38.3928 12.9695L39.7873 10.4195C39.8683 10.2715 40.0236 10.1794 40.1923 10.1794C40.361 10.1794 40.5163 10.2715 40.5972 10.4195L41.9918 12.9695L44.5419 14.3642C44.69 14.4452 44.782 14.6004 44.782 14.7692C44.782 14.9379 44.69 15.0932 44.5419 15.1741L41.9918 16.5688L40.5972 19.1188C40.5163 19.2669 40.361 19.3589 40.1923 19.3589ZM37.026 14.7693L38.9543 15.8239C39.0317 15.8662 39.0953 15.9298 39.1377 16.0073L40.1923 17.9355L41.2469 16.0073C41.2893 15.9298 41.3529 15.8662 41.4303 15.8239L43.3586 14.7693L41.4303 13.7146C41.3529 13.6723 41.2893 13.6087 41.2469 13.5312L40.1923 11.603L39.1377 13.5312C39.0953 13.6087 39.0317 13.6723 38.9543 13.7146L37.026 14.7693Z" fill="black"/>
<path d="M22.1666 42.8715C21.9978 42.8715 21.8426 42.7795 21.7616 42.6314L20.6933 40.6782L18.7401 39.6099C18.592 39.529 18.5 39.3737 18.5 39.205C18.5 39.0363 18.592 38.881 18.7401 38.8L20.6934 37.7317L21.7617 35.7784C21.8426 35.6304 21.9979 35.5383 22.1666 35.5383C22.3354 35.5383 22.4906 35.6304 22.5716 35.7784L23.6399 37.7317L25.5932 38.8C25.7413 38.881 25.8333 39.0363 25.8333 39.205C25.8333 39.3737 25.7413 39.529 25.5932 39.6099L23.6399 40.6782L22.5716 42.6314C22.4906 42.7795 22.3353 42.8715 22.1666 42.8715ZM19.9234 39.2051L21.2548 39.9333C21.3323 39.9757 21.396 40.0393 21.4383 40.1167L22.1666 41.4482L22.8948 40.1167C22.9371 40.0393 23.0007 39.9757 23.0783 39.9333L24.4097 39.2051L23.0782 38.4768C23.0007 38.4344 22.9371 38.3708 22.8948 38.2933L22.1666 36.9618L21.4383 38.2933C21.396 38.3708 21.3324 38.4344 21.2549 38.4768L19.9234 39.2051Z" fill="black"/>
<path d="M36.5 6.923C35.2275 6.923 34.1923 5.88777 34.1923 4.61531C34.1923 3.34285 35.2275 2.30762 36.5 2.30762C37.7724 2.30762 38.8077 3.34285 38.8077 4.61531C38.8077 5.88777 37.7724 6.923 36.5 6.923ZM36.5 3.23069C35.7365 3.23069 35.1154 3.85183 35.1154 4.61531C35.1154 5.37879 35.7365 5.99992 36.5 5.99992C37.2635 5.99992 37.8846 5.37879 37.8846 4.61531C37.8846 3.85183 37.2635 3.23069 36.5 3.23069Z" fill="black"/>
<path d="M43.8849 27.2306C42.6124 27.2306 41.5772 26.1954 41.5772 24.9229C41.5772 23.6505 42.6124 22.6152 43.8849 22.6152C45.1574 22.6152 46.1926 23.6505 46.1926 24.9229C46.1926 26.1954 45.1574 27.2306 43.8849 27.2306ZM43.8849 23.5383C43.1214 23.5383 42.5003 24.1594 42.5003 24.9229C42.5003 25.6864 43.1214 26.3075 43.8849 26.3075C44.6484 26.3075 45.2695 25.6864 45.2695 24.9229C45.2695 24.1594 44.6484 23.5383 43.8849 23.5383Z" fill="black"/>
<path d="M5.11537 35.5385C3.84291 35.5385 2.80768 34.5032 2.80768 33.2308C2.80768 31.9583 3.84291 30.9231 5.11537 30.9231C6.38783 30.9231 7.42306 31.9583 7.42306 33.2308C7.42306 34.5032 6.38783 35.5385 5.11537 35.5385ZM5.11537 31.8462C4.35189 31.8462 3.73076 32.4673 3.73076 33.2308C3.73076 33.9943 4.35189 34.6154 5.11537 34.6154C5.87885 34.6154 6.49999 33.9943 6.49999 33.2308C6.49999 32.4673 5.87885 31.8462 5.11537 31.8462Z" fill="black"/>
<path d="M11.5773 42.923C10.3048 42.923 9.26959 41.8878 9.26959 40.6153C9.26959 39.3428 10.3048 38.3076 11.5773 38.3076C12.8497 38.3076 13.885 39.3428 13.885 40.6153C13.885 41.8878 12.8497 42.923 11.5773 42.923ZM11.5773 39.2307C10.8138 39.2307 10.1927 39.8518 10.1927 40.6153C10.1927 41.3788 10.8138 41.9999 11.5773 41.9999C12.3408 41.9999 12.9619 41.3788 12.9619 40.6153C12.9619 39.8518 12.3408 39.2307 11.5773 39.2307Z" fill="black"/>
</svg>
